<svg xmlns="http://www.w3.org/2000/svg" xmlns:xlink="http://www.w3.org/1999/xlink" width="32" zoomAndPan="magnify" viewBox="0 0 384 383.999986" height="32" preserveAspectRatio="xMidYMid meet" version="1.0"><defs><clipPath id="6be809cf21"><path d="M 16.289062 16.238281 L 367.710938 16.238281 L 367.710938 367.761719 L 16.289062 367.761719 Z M 16.289062 16.238281 " clip-rule="nonzero"/></clipPath><linearGradient x1="-0.0000000718637" gradientTransform="matrix(1.372753, 0, 0, 1.373149, 16.287633, 16.236969)" y1="0" x2="255.999991" gradientUnits="userSpaceOnUse" y2="0" id="0cd48d1f65"><stop stop-opacity="1" stop-color="rgb(80.39856%, 100%, 84.698486%)" offset="0"/><stop stop-opacity="1" stop-color="rgb(80.311584%, 99.891663%, 84.757996%)" offset="0.0078125"/><stop stop-opacity="1" stop-color="rgb(80.136108%, 99.676514%, 84.87854%)" offset="0.015625"/><stop stop-opacity="1" stop-color="rgb(79.960632%, 99.461365%, 84.997559%)" offset="0.0234375"/><stop stop-opacity="1" stop-color="rgb(79.786682%, 99.246216%, 85.116577%)" offset="0.03125"/><stop stop-opacity="1" stop-color="rgb(79.611206%, 99.032593%, 85.237122%)" offset="0.0390625"/><stop stop-opacity="1" stop-color="rgb(79.43573%, 98.817444%, 85.35614%)" offset="0.046875"/><stop stop-opacity="1" stop-color="rgb(79.26178%, 98.602295%, 85.476685%)" offset="0.0546875"/><stop stop-opacity="1" stop-color="rgb(79.086304%, 98.387146%, 85.595703%)" offset="0.0625"/><stop stop-opacity="1" stop-color="rgb(78.910828%, 98.171997%, 85.714722%)" offset="0.0703125"/><stop stop-opacity="1" stop-color="rgb(78.736877%, 97.958374%, 85.835266%)" offset="0.078125"/><stop stop-opacity="1" stop-color="rgb(78.561401%, 97.743225%, 85.954285%)" offset="0.0859375"/><stop stop-opacity="1" stop-color="rgb(78.385925%, 97.528076%, 86.073303%)" offset="0.09375"/><stop stop-opacity="1" stop-color="rgb(78.211975%, 97.312927%, 86.193848%)" offset="0.101562"/><stop stop-opacity="1" stop-color="rgb(78.036499%, 97.097778%, 86.312866%)" offset="0.109375"/><stop stop-opacity="1" stop-color="rgb(77.861023%, 96.884155%, 86.431885%)" offset="0.117188"/><stop stop-opacity="1" stop-color="rgb(77.685547%, 96.669006%, 86.552429%)" offset="0.125"/><stop stop-opacity="1" stop-color="rgb(77.511597%, 96.453857%, 86.671448%)" offset="0.132812"/><stop stop-opacity="1" stop-color="rgb(77.336121%, 96.238708%, 86.790466%)" offset="0.140625"/><stop stop-opacity="1" stop-color="rgb(77.160645%, 96.02356%, 86.911011%)" offset="0.148437"/><stop stop-opacity="1" stop-color="rgb(76.986694%, 95.809937%, 87.030029%)" offset="0.15625"/><stop stop-opacity="1" stop-color="rgb(76.811218%, 95.594788%, 87.149048%)" offset="0.164062"/><stop stop-opacity="1" stop-color="rgb(76.635742%, 95.379639%, 87.269592%)" offset="0.171875"/><stop stop-opacity="1" stop-color="rgb(76.461792%, 95.16449%, 87.388611%)" offset="0.179687"/><stop stop-opacity="1" stop-color="rgb(76.286316%, 94.949341%, 87.507629%)" offset="0.1875"/><stop stop-opacity="1" stop-color="rgb(76.11084%, 94.735718%, 87.628174%)" offset="0.195312"/><stop stop-opacity="1" stop-color="rgb(75.93689%, 94.520569%, 87.747192%)" offset="0.203125"/><stop stop-opacity="1" stop-color="rgb(75.761414%, 94.30542%, 87.866211%)" offset="0.210938"/><stop stop-opacity="1" stop-color="rgb(75.585938%, 94.090271%, 87.986755%)" offset="0.21875"/><stop stop-opacity="1" stop-color="rgb(75.410461%, 93.875122%, 88.105774%)" offset="0.226562"/><stop stop-opacity="1" stop-color="rgb(75.236511%, 93.661499%, 88.224792%)" offset="0.234375"/><stop stop-opacity="1" stop-color="rgb(75.061035%, 93.44635%, 88.345337%)" offset="0.242188"/><stop stop-opacity="1" stop-color="rgb(74.885559%, 93.231201%, 88.464355%)" offset="0.25"/><stop stop-opacity="1" stop-color="rgb(74.711609%, 93.016052%, 88.583374%)" offset="0.257812"/><stop stop-opacity="1" stop-color="rgb(74.536133%, 92.800903%, 88.703918%)" offset="0.265625"/><stop stop-opacity="1" stop-color="rgb(74.360657%, 92.58728%, 88.822937%)" offset="0.273437"/><stop stop-opacity="1" stop-color="rgb(74.186707%, 92.372131%, 88.941956%)" offset="0.28125"/><stop stop-opacity="1" stop-color="rgb(74.01123%, 92.156982%, 89.0625%)" offset="0.289062"/><stop stop-opacity="1" stop-color="rgb(73.835754%, 91.941833%, 89.181519%)" offset="0.296875"/><stop stop-opacity="1" stop-color="rgb(73.661804%, 91.726685%, 89.300537%)" offset="0.304687"/><stop stop-opacity="1" stop-color="rgb(73.486328%, 91.513062%, 89.421082%)" offset="0.3125"/><stop stop-opacity="1" stop-color="rgb(73.310852%, 91.297913%, 89.5401%)" offset="0.320312"/><stop stop-opacity="1" stop-color="rgb(73.136902%, 91.082764%, 89.659119%)" offset="0.328125"/><stop stop-opacity="1" stop-color="rgb(72.961426%, 90.867615%, 89.779663%)" offset="0.335937"/><stop stop-opacity="1" stop-color="rgb(72.78595%, 90.652466%, 89.898682%)" offset="0.34375"/><stop stop-opacity="1" stop-color="rgb(72.610474%, 90.438843%, 90.0177%)" offset="0.351562"/><stop stop-opacity="1" stop-color="rgb(72.436523%, 90.223694%, 90.138245%)" offset="0.359375"/><stop stop-opacity="1" stop-color="rgb(72.261047%, 90.008545%, 90.257263%)" offset="0.367187"/><stop stop-opacity="1" stop-color="rgb(72.085571%, 89.793396%, 90.376282%)" offset="0.375"/><stop stop-opacity="1" stop-color="rgb(71.911621%, 89.578247%, 90.496826%)" offset="0.382812"/><stop stop-opacity="1" stop-color="rgb(71.736145%, 89.364624%, 90.615845%)" offset="0.390625"/><stop stop-opacity="1" stop-color="rgb(71.560669%, 89.149475%, 90.734863%)" offset="0.398437"/><stop stop-opacity="1" stop-color="rgb(71.386719%, 88.934326%, 90.855408%)" offset="0.40625"/><stop stop-opacity="1" stop-color="rgb(71.211243%, 88.719177%, 90.974426%)" offset="0.414062"/><stop stop-opacity="1" stop-color="rgb(71.035767%, 88.504028%, 91.093445%)" offset="0.421875"/><stop stop-opacity="1" stop-color="rgb(70.861816%, 88.290405%, 91.213989%)" offset="0.429687"/><stop stop-opacity="1" stop-color="rgb(70.68634%, 88.075256%, 91.333008%)" offset="0.4375"/><stop stop-opacity="1" stop-color="rgb(70.510864%, 87.860107%, 91.452026%)" offset="0.445312"/><stop stop-opacity="1" stop-color="rgb(70.336914%, 87.644958%, 91.572571%)" offset="0.453125"/><stop stop-opacity="1" stop-color="rgb(70.161438%, 87.42981%, 91.691589%)" offset="0.460937"/><stop stop-opacity="1" stop-color="rgb(69.985962%, 87.216187%, 91.810608%)" offset="0.46875"/><stop stop-opacity="1" stop-color="rgb(69.810486%, 87.001038%, 91.931152%)" offset="0.476562"/><stop stop-opacity="1" stop-color="rgb(69.636536%, 86.785889%, 92.050171%)" offset="0.484375"/><stop stop-opacity="1" stop-color="rgb(69.46106%, 86.57074%, 92.169189%)" offset="0.492187"/><stop stop-opacity="1" stop-color="rgb(69.285583%, 86.355591%, 92.289734%)" offset="0.5"/><stop stop-opacity="1" stop-color="rgb(69.111633%, 86.141968%, 92.408752%)" offset="0.507812"/><stop stop-opacity="1" stop-color="rgb(68.936157%, 85.926819%, 92.527771%)" offset="0.515625"/><stop stop-opacity="1" stop-color="rgb(68.760681%, 85.71167%, 92.648315%)" offset="0.523437"/><stop stop-opacity="1" stop-color="rgb(68.586731%, 85.496521%, 92.767334%)" offset="0.53125"/><stop stop-opacity="1" stop-color="rgb(68.411255%, 85.281372%, 92.886353%)" offset="0.539062"/><stop stop-opacity="1" stop-color="rgb(68.235779%, 85.067749%, 93.006897%)" offset="0.546875"/><stop stop-opacity="1" stop-color="rgb(68.061829%, 84.8526%, 93.125916%)" offset="0.554687"/><stop stop-opacity="1" stop-color="rgb(67.886353%, 84.637451%, 93.244934%)" offset="0.5625"/><stop stop-opacity="1" stop-color="rgb(67.710876%, 84.422302%, 93.365479%)" offset="0.570312"/><stop stop-opacity="1" stop-color="rgb(67.536926%, 84.207153%, 93.484497%)" offset="0.578125"/><stop stop-opacity="1" stop-color="rgb(67.36145%, 83.99353%, 93.603516%)" offset="0.585937"/><stop stop-opacity="1" stop-color="rgb(67.185974%, 83.778381%, 93.72406%)" offset="0.59375"/><stop stop-opacity="1" stop-color="rgb(67.010498%, 83.563232%, 93.843079%)" offset="0.601562"/><stop stop-opacity="1" stop-color="rgb(66.836548%, 83.348083%, 93.962097%)" offset="0.609375"/><stop stop-opacity="1" stop-color="rgb(66.661072%, 83.132935%, 94.082642%)" offset="0.617187"/><stop stop-opacity="1" stop-color="rgb(66.485596%, 82.919312%, 94.20166%)" offset="0.625"/><stop stop-opacity="1" stop-color="rgb(66.311646%, 82.704163%, 94.320679%)" offset="0.632812"/><stop stop-opacity="1" stop-color="rgb(66.136169%, 82.489014%, 94.441223%)" offset="0.640625"/><stop stop-opacity="1" stop-color="rgb(65.960693%, 82.273865%, 94.560242%)" offset="0.648437"/><stop stop-opacity="1" stop-color="rgb(65.786743%, 82.058716%, 94.67926%)" offset="0.65625"/><stop stop-opacity="1" stop-color="rgb(65.611267%, 81.845093%, 94.799805%)" offset="0.664062"/><stop stop-opacity="1" stop-color="rgb(65.435791%, 81.629944%, 94.918823%)" offset="0.671875"/><stop stop-opacity="1" stop-color="rgb(65.261841%, 81.414795%, 95.037842%)" offset="0.679687"/><stop stop-opacity="1" stop-color="rgb(65.086365%, 81.199646%, 95.158386%)" offset="0.6875"/><stop stop-opacity="1" stop-color="rgb(64.910889%, 80.984497%, 95.277405%)" offset="0.695312"/><stop stop-opacity="1" stop-color="rgb(64.736938%, 80.770874%, 95.396423%)" offset="0.703125"/><stop stop-opacity="1" stop-color="rgb(64.561462%, 80.555725%, 95.516968%)" offset="0.710937"/><stop stop-opacity="1" stop-color="rgb(64.385986%, 80.340576%, 95.635986%)" offset="0.71875"/><stop stop-opacity="1" stop-color="rgb(64.21051%, 80.125427%, 95.755005%)" offset="0.726562"/><stop stop-opacity="1" stop-color="rgb(64.03656%, 79.910278%, 95.875549%)" offset="0.734375"/><stop stop-opacity="1" stop-color="rgb(63.861084%, 79.696655%, 95.994568%)" offset="0.742187"/><stop stop-opacity="1" stop-color="rgb(63.685608%, 79.481506%, 96.113586%)" offset="0.75"/><stop stop-opacity="1" stop-color="rgb(63.511658%, 79.266357%, 96.234131%)" offset="0.757812"/><stop stop-opacity="1" stop-color="rgb(63.336182%, 79.051208%, 96.353149%)" offset="0.765625"/><stop stop-opacity="1" stop-color="rgb(63.160706%, 78.83606%, 96.472168%)" offset="0.773437"/><stop stop-opacity="1" stop-color="rgb(62.986755%, 78.622437%, 96.592712%)" offset="0.78125"/><stop stop-opacity="1" stop-color="rgb(62.811279%, 78.407288%, 96.711731%)" offset="0.789062"/><stop stop-opacity="1" stop-color="rgb(62.635803%, 78.192139%, 96.83075%)" offset="0.796875"/><stop stop-opacity="1" stop-color="rgb(62.461853%, 77.97699%, 96.951294%)" offset="0.804687"/><stop stop-opacity="1" stop-color="rgb(62.286377%, 77.761841%, 97.070312%)" offset="0.8125"/><stop stop-opacity="1" stop-color="rgb(62.110901%, 77.548218%, 97.189331%)" offset="0.820312"/><stop stop-opacity="1" stop-color="rgb(61.936951%, 77.333069%, 97.309875%)" offset="0.828125"/><stop stop-opacity="1" stop-color="rgb(61.761475%, 77.11792%, 97.428894%)" offset="0.835937"/><stop stop-opacity="1" stop-color="rgb(61.585999%, 76.902771%, 97.547913%)" offset="0.84375"/><stop stop-opacity="1" stop-color="rgb(61.410522%, 76.687622%, 97.668457%)" offset="0.851562"/><stop stop-opacity="1" stop-color="rgb(61.236572%, 76.473999%, 97.787476%)" offset="0.859375"/><stop stop-opacity="1" stop-color="rgb(61.061096%, 76.25885%, 97.906494%)" offset="0.867187"/><stop stop-opacity="1" stop-color="rgb(60.88562%, 76.043701%, 98.027039%)" offset="0.875"/><stop stop-opacity="1" stop-color="rgb(60.71167%, 75.828552%, 98.146057%)" offset="0.882812"/><stop stop-opacity="1" stop-color="rgb(60.536194%, 75.613403%, 98.265076%)" offset="0.890625"/><stop stop-opacity="1" stop-color="rgb(60.360718%, 75.39978%, 98.38562%)" offset="0.898437"/><stop stop-opacity="1" stop-color="rgb(60.186768%, 75.184631%, 98.504639%)" offset="0.90625"/><stop stop-opacity="1" stop-color="rgb(60.011292%, 74.969482%, 98.623657%)" offset="0.914062"/><stop stop-opacity="1" stop-color="rgb(59.835815%, 74.754333%, 98.744202%)" offset="0.921875"/><stop stop-opacity="1" stop-color="rgb(59.661865%, 74.539185%, 98.86322%)" offset="0.929687"/><stop stop-opacity="1" stop-color="rgb(59.486389%, 74.325562%, 98.982239%)" offset="0.9375"/><stop stop-opacity="1" stop-color="rgb(59.310913%, 74.110413%, 99.102783%)" offset="0.945312"/><stop stop-opacity="1" stop-color="rgb(59.136963%, 73.895264%, 99.221802%)" offset="0.953125"/><stop stop-opacity="1" stop-color="rgb(58.961487%, 73.680115%, 99.34082%)" offset="0.960937"/><stop stop-opacity="1" stop-color="rgb(58.786011%, 73.464966%, 99.461365%)" offset="0.96875"/><stop stop-opacity="1" stop-color="rgb(58.610535%, 73.251343%, 99.580383%)" offset="0.976562"/><stop stop-opacity="1" stop-color="rgb(58.436584%, 73.036194%, 99.699402%)" offset="0.984375"/><stop stop-opacity="1" stop-color="rgb(58.261108%, 72.821045%, 99.819946%)" offset="0.992187"/><stop stop-opacity="1" stop-color="rgb(58.085632%, 72.605896%, 99.938965%)" offset="1"/></linearGradient><clipPath id="28d933cca1"><path d="M 105 0 L 188 0 L 188 177 L 105 177 Z M 105 0 " clip-rule="nonzero"/></clipPath><clipPath id="78d9817042"><path d="M 364.503906 286.050781 L 115.4375 366.546875 L 7.496094 32.558594 L 256.558594 -47.9375 Z M 364.503906 286.050781 " clip-rule="nonzero"/></clipPath><clipPath id="789c21d863"><path d="M 364.503906 286.050781 L 115.4375 366.546875 L 4.035156 21.855469 L 253.097656 -58.640625 Z M 364.503906 286.050781 " clip-rule="nonzero"/></clipPath><clipPath id="232edf9711"><path d="M 364.503906 286.050781 L 115.4375 366.546875 L 4.035156 21.855469 L 253.097656 -58.640625 Z M 364.503906 286.050781 " clip-rule="nonzero"/></clipPath><clipPath id="0e3cf0788e"><path d="M 188.117188 175.96875 L 147.96875 188.945312 L 85.367188 -4.742188 L 125.519531 -17.71875 Z M 188.117188 175.96875 " clip-rule="nonzero"/></clipPath><clipPath id="2c4e5e853b"><path d="M 188.117188 175.96875 L 147.96875 188.945312 L 85.464844 -4.441406 L 125.617188 -17.417969 Z M 188.117188 175.96875 " clip-rule="nonzero"/></clipPath><clipPath id="ceffa33bc3"><path d="M 127 200 L 246 200 L 246 331 L 127 331 Z M 127 200 " clip-rule="nonzero"/></clipPath><clipPath id="734fd03e76"><path d="M 364.503906 286.050781 L 115.4375 366.546875 L 7.496094 32.558594 L 256.558594 -47.9375 Z M 364.503906 286.050781 " clip-rule="nonzero"/></clipPath><clipPath id="7fdd25603c"><path d="M 364.503906 286.050781 L 115.4375 366.546875 L 4.035156 21.855469 L 253.097656 -58.640625 Z M 364.503906 286.050781 " clip-rule="nonzero"/></clipPath><clipPath id="ca99c41736"><path d="M 364.503906 286.050781 L 115.4375 366.546875 L 4.035156 21.855469 L 253.097656 -58.640625 Z M 364.503906 286.050781 " clip-rule="nonzero"/></clipPath><clipPath id="be3786919b"><path d="M 149 71 L 268 71 L 268 202 L 149 202 Z M 149 71 " clip-rule="nonzero"/></clipPath><clipPath id="3e28258e46"><path d="M 364.503906 286.050781 L 115.4375 366.546875 L 7.496094 32.558594 L 256.558594 -47.9375 Z M 364.503906 286.050781 " clip-rule="nonzero"/></clipPath><clipPath id="f483986175"><path d="M 364.503906 286.050781 L 115.4375 366.546875 L 4.035156 21.855469 L 253.097656 -58.640625 Z M 364.503906 286.050781 " clip-rule="nonzero"/></clipPath><clipPath id="d09a16e2c0"><path d="M 364.503906 286.050781 L 115.4375 366.546875 L 4.035156 21.855469 L 253.097656 -58.640625 Z M 364.503906 286.050781 " clip-rule="nonzero"/></clipPath><clipPath id="5e906a0254"><path d="M 68 131 L 198 131 L 198 249 L 68 249 Z M 68 131 " clip-rule="nonzero"/></clipPath><clipPath id="942fe5939c"><path d="M 364.503906 286.050781 L 115.4375 366.546875 L 7.496094 32.558594 L 256.558594 -47.9375 Z M 364.503906 286.050781 " clip-rule="nonzero"/></clipPath><clipPath id="ddfd698d1f"><path d="M 364.503906 286.050781 L 115.4375 366.546875 L 4.035156 21.855469 L 253.097656 -58.640625 Z M 364.503906 286.050781 " clip-rule="nonzero"/></clipPath><clipPath id="7ef0b8d6f5"><path d="M 364.503906 286.050781 L 115.4375 366.546875 L 4.035156 21.855469 L 253.097656 -58.640625 Z M 364.503906 286.050781 " clip-rule="nonzero"/></clipPath><clipPath id="0f4fc7f662"><path d="M 205.480469 222.476562 L 81.507812 262.542969 L 45.089844 149.851562 L 169.058594 109.785156 Z M 205.480469 222.476562 " clip-rule="nonzero"/></clipPath><clipPath id="5e2eb6891b"><path d="M 205.480469 222.476562 L 82.128906 262.34375 L 45.707031 149.652344 L 169.058594 109.785156 Z M 205.480469 222.476562 " clip-rule="nonzero"/></clipPath><clipPath id="910096eb6e"><path d="M 196 153 L 327 153 L 327 272 L 196 272 Z M 196 153 " clip-rule="nonzero"/></clipPath><clipPath id="549c0ba19e"><path d="M 364.503906 286.050781 L 115.4375 366.546875 L 7.496094 32.558594 L 256.558594 -47.9375 Z M 364.503906 286.050781 " clip-rule="nonzero"/></clipPath><clipPath id="4509ec1220"><path d="M 364.503906 286.050781 L 115.4375 366.546875 L 4.035156 21.855469 L 253.097656 -58.640625 Z M 364.503906 286.050781 " clip-rule="nonzero"/></clipPath><clipPath id="d512b82ad9"><path d="M 364.503906 286.050781 L 115.4375 366.546875 L 4.035156 21.855469 L 253.097656 -58.640625 Z M 364.503906 286.050781 " clip-rule="nonzero"/></clipPath><clipPath id="2f1a0011a5"><path d="M 136 211 L 236 211 L 236 322 L 136 322 Z M 136 211 " clip-rule="nonzero"/></clipPath><clipPath id="2c91af124d"><path d="M 364.503906 286.050781 L 115.4375 366.546875 L 7.496094 32.558594 L 256.558594 -47.9375 Z M 364.503906 286.050781 " clip-rule="nonzero"/></clipPath><clipPath id="db1ee10d7f"><path d="M 364.503906 286.050781 L 115.4375 366.546875 L 4.035156 21.855469 L 253.097656 -58.640625 Z M 364.503906 286.050781 " clip-rule="nonzero"/></clipPath><clipPath id="fd2b68c38b"><path d="M 364.503906 286.050781 L 115.4375 366.546875 L 4.035156 21.855469 L 253.097656 -58.640625 Z M 364.503906 286.050781 " clip-rule="nonzero"/></clipPath><clipPath id="5fafc42b0c"><path d="M 167 219 L 182 219 L 182 230 L 167 230 Z M 167 219 " clip-rule="nonzero"/></clipPath><clipPath id="2676248804"><path d="M 364.503906 286.050781 L 115.4375 366.546875 L 7.496094 32.558594 L 256.558594 -47.9375 Z M 364.503906 286.050781 " clip-rule="nonzero"/></clipPath><clipPath id="a2bbed3c38"><path d="M 364.503906 286.050781 L 115.4375 366.546875 L 4.035156 21.855469 L 253.097656 -58.640625 Z M 364.503906 286.050781 " clip-rule="nonzero"/></clipPath><clipPath id="cd7c4c7034"><path d="M 364.503906 286.050781 L 115.4375 366.546875 L 4.035156 21.855469 L 253.097656 -58.640625 Z M 364.503906 286.050781 " clip-rule="nonzero"/></clipPath><clipPath id="bb9ef68a91"><path d="M 158 81 L 258 81 L 258 192 L 158 192 Z M 158 81 " clip-rule="nonzero"/></clipPath><clipPath id="371e51e518"><path d="M 364.503906 286.050781 L 115.4375 366.546875 L 7.496094 32.558594 L 256.558594 -47.9375 Z M 364.503906 286.050781 " clip-rule="nonzero"/></clipPath><clipPath id="a14b84aa7d"><path d="M 364.503906 286.050781 L 115.4375 366.546875 L 4.035156 21.855469 L 253.097656 -58.640625 Z M 364.503906 286.050781 " clip-rule="nonzero"/></clipPath><clipPath id="fddf93edd0"><path d="M 364.503906 286.050781 L 115.4375 366.546875 L 4.035156 21.855469 L 253.097656 -58.640625 Z M 364.503906 286.050781 " clip-rule="nonzero"/></clipPath><clipPath id="746b31606d"><path d="M 173 164 L 189 164 L 189 183 L 173 183 Z M 173 164 " clip-rule="nonzero"/></clipPath><clipPath id="ea467a665f"><path d="M 364.503906 286.050781 L 115.4375 366.546875 L 7.496094 32.558594 L 256.558594 -47.9375 Z M 364.503906 286.050781 " clip-rule="nonzero"/></clipPath><clipPath id="79854ffe85"><path d="M 364.503906 286.050781 L 115.4375 366.546875 L 4.035156 21.855469 L 253.097656 -58.640625 Z M 364.503906 286.050781 " clip-rule="nonzero"/></clipPath><clipPath id="55ee94aed5"><path d="M 364.503906 286.050781 L 115.4375 366.546875 L 4.035156 21.855469 L 253.097656 -58.640625 Z M 364.503906 286.050781 " clip-rule="nonzero"/></clipPath><clipPath id="a56fce0fec"><path d="M 213 172 L 228 172 L 228 184 L 213 184 Z M 213 172 " clip-rule="nonzero"/></clipPath><clipPath id="802cd61bc8"><path d="M 364.503906 286.050781 L 115.4375 366.546875 L 7.496094 32.558594 L 256.558594 -47.9375 Z M 364.503906 286.050781 " clip-rule="nonzero"/></clipPath><clipPath id="77b5734c43"><path d="M 364.503906 286.050781 L 115.4375 366.546875 L 4.035156 21.855469 L 253.097656 -58.640625 Z M 364.503906 286.050781 " clip-rule="nonzero"/></clipPath><clipPath id="7378015871"><path d="M 364.503906 286.050781 L 115.4375 366.546875 L 4.035156 21.855469 L 253.097656 -58.640625 Z M 364.503906 286.050781 " clip-rule="nonzero"/></clipPath><clipPath id="58215b011a"><path d="M 76 141 L 187 141 L 187 241 L 76 241 Z M 76 141 " clip-rule="nonzero"/></clipPath><clipPath id="e1d7c7fa31"><path d="M 364.503906 286.050781 L 115.4375 366.546875 L 7.496094 32.558594 L 256.558594 -47.9375 Z M 364.503906 286.050781 " clip-rule="nonzero"/></clipPath><clipPath id="56ae1d49a8"><path d="M 364.503906 286.050781 L 115.4375 366.546875 L 4.035156 21.855469 L 253.097656 -58.640625 Z M 364.503906 286.050781 " clip-rule="nonzero"/></clipPath><clipPath id="1f547b7d41"><path d="M 364.503906 286.050781 L 115.4375 366.546875 L 4.035156 21.855469 L 253.097656 -58.640625 Z M 364.503906 286.050781 " clip-rule="nonzero"/></clipPath><clipPath id="7f8714fe1e"><path d="M 207 162 L 318 162 L 318 262 L 207 262 Z M 207 162 " clip-rule="nonzero"/></clipPath><clipPath id="22b66774ab"><path d="M 364.503906 286.050781 L 115.4375 366.546875 L 7.496094 32.558594 L 256.558594 -47.9375 Z M 364.503906 286.050781 " clip-rule="nonzero"/></clipPath><clipPath id="e9dbc6cc5e"><path d="M 364.503906 286.050781 L 115.4375 366.546875 L 4.035156 21.855469 L 253.097656 -58.640625 Z M 364.503906 286.050781 " clip-rule="nonzero"/></clipPath><clipPath id="29d51c98b9"><path d="M 364.503906 286.050781 L 115.4375 366.546875 L 4.035156 21.855469 L 253.097656 -58.640625 Z M 364.503906 286.050781 " clip-rule="nonzero"/></clipPath></defs><g clip-path="url(#6be809cf21)"><path fill="url(#0cd48d1f65)" d="M 16.289062 16.238281 L 16.289062 367.761719 L 367.710938 367.761719 L 367.710938 16.238281 Z M 16.289062 16.238281 " fill-rule="nonzero"/></g><g clip-path="url(#28d933cca1)"><g clip-path="url(#78d9817042)"><g clip-path="url(#789c21d863)"><g clip-path="url(#232edf9711)"><g clip-path="url(#0e3cf0788e)"><g clip-path="url(#2c4e5e853b)"><path fill="#288d52" d="M 186.617188 172.96875 C 175.796875 164.613281 166.046875 154.601562 157.03125 144.378906 C 138.160156 122.980469 124.917969 98.527344 116.960938 70.949219 C 108.980469 43.292969 111.238281 14.164062 123.1875 -11.996094 C 124.328125 -14.484375 117.894531 -16.4375 116.765625 -13.964844 C 102.742188 16.738281 102.363281 50.382812 113.675781 81.96875 C 123.003906 108.027344 139.273438 131.410156 157.910156 151.660156 C 165.96875 160.417969 174.585938 169.027344 184.03125 176.316406 C 186.195312 177.988281 188.777344 174.632812 186.617188 172.96875 " fill-opacity="1" fill-rule="nonzero"/></g></g></g></g></g></g><g clip-path="url(#ceffa33bc3)"><g clip-path="url(#734fd03e76)"><g clip-path="url(#7fdd25603c)"><g clip-path="url(#ca99c41736)"><path fill="#288d52" d="M 129.582031 300.691406 C 134.726562 318.4375 152.941406 327.824219 170.183594 323.109375 C 174.648438 321.890625 178.746094 319.648438 182.375 316.734375 C 192.875 330.6875 212.566406 335.148438 227.574219 325.390625 C 241.234375 316.503906 247.144531 295.335938 244.5 279.65625 C 240.347656 255.035156 228.722656 231.863281 212.074219 213.855469 C 207.957031 209.402344 203.480469 205.332031 198.769531 201.5625 C 198.550781 201.253906 198.234375 201.011719 197.816406 200.878906 C 197.609375 200.800781 197.382812 200.765625 197.140625 200.773438 C 196.671875 200.757812 196.261719 200.902344 195.929688 201.148438 C 169.332031 212.945312 146.023438 234.78125 133.292969 261.796875 C 127.59375 273.890625 125.808594 287.683594 129.582031 300.691406 " fill-opacity="1" fill-rule="nonzero"/></g></g></g></g><g clip-path="url(#be3786919b)"><g clip-path="url(#3e28258e46)"><g clip-path="url(#f483986175)"><g clip-path="url(#d09a16e2c0)"><path fill="#288d52" d="M 157.167969 87.828125 C 166.671875 71.980469 186.671875 67.539062 202.144531 76.496094 C 206.148438 78.8125 209.539062 82.023438 212.304688 85.765625 C 226.019531 74.945312 246.195312 75.652344 258.21875 88.90625 C 269.167969 100.980469 269.484375 122.957031 262.929688 137.445312 C 252.640625 160.199219 235.488281 179.644531 214.796875 192.816406 C 209.683594 196.070312 204.316406 198.867188 198.800781 201.3125 C 198.511719 201.554688 198.144531 201.707031 197.707031 201.726562 C 197.484375 201.746094 197.257812 201.730469 197.027344 201.660156 C 196.570312 201.554688 196.210938 201.3125 195.949219 200.988281 C 173.238281 182.804688 156.269531 155.75 150.839844 126.386719 C 148.410156 113.238281 150.203125 99.441406 157.167969 87.828125 " fill-opacity="1" fill-rule="nonzero"/></g></g></g></g><g clip-path="url(#5e906a0254)"><g clip-path="url(#942fe5939c)"><g clip-path="url(#ddfd698d1f)"><g clip-path="url(#7ef0b8d6f5)"><g clip-path="url(#0f4fc7f662)"><g clip-path="url(#5e2eb6891b)"><path fill="#288d52" d="M 98.015625 133.40625 C 80.269531 138.554688 70.878906 156.761719 75.597656 174.007812 C 76.816406 178.46875 79.058594 182.566406 81.972656 186.195312 C 68.015625 196.695312 63.558594 216.390625 73.308594 231.390625 C 82.195312 245.050781 103.367188 250.960938 119.050781 248.316406 C 143.671875 244.164062 166.84375 232.539062 184.855469 215.886719 C 189.308594 211.769531 193.382812 207.289062 197.152344 202.582031 C 197.457031 202.363281 197.699219 202.046875 197.832031 201.628906 C 197.910156 201.421875 197.949219 201.195312 197.941406 200.953125 C 197.957031 200.488281 197.816406 200.078125 197.566406 199.746094 C 185.769531 173.148438 163.933594 149.847656 136.917969 137.117188 C 124.824219 131.414062 111.023438 129.632812 98.015625 133.40625 " fill-opacity="1" fill-rule="nonzero"/></g></g></g></g></g></g><g clip-path="url(#910096eb6e)"><g clip-path="url(#549c0ba19e)"><g clip-path="url(#4509ec1220)"><g clip-path="url(#d512b82ad9)"><path fill="#288d52" d="M 310.898438 160.976562 C 326.746094 170.476562 331.183594 190.476562 322.230469 205.953125 C 319.910156 209.957031 316.699219 213.347656 312.957031 216.113281 C 323.777344 229.820312 323.070312 250 309.8125 262.019531 C 297.738281 272.96875 275.757812 273.289062 261.269531 266.738281 C 238.519531 256.449219 219.070312 239.300781 205.902344 218.609375 C 202.644531 213.496094 199.847656 208.128906 197.402344 202.613281 C 197.160156 202.324219 197.007812 201.960938 196.988281 201.519531 C 196.964844 201.296875 196.984375 201.070312 197.054688 200.839844 C 197.160156 200.382812 197.402344 200.023438 197.726562 199.765625 C 215.910156 177.050781 242.96875 160.082031 272.335938 154.65625 C 285.484375 152.226562 299.28125 154.015625 310.898438 160.976562 " fill-opacity="1" fill-rule="nonzero"/></g></g></g></g><g clip-path="url(#2f1a0011a5)"><g clip-path="url(#2c91af124d)"><g clip-path="url(#db1ee10d7f)"><g clip-path="url(#fd2b68c38b)"><path fill="#27864f" d="M 194.722656 211.972656 C 194.898438 211.917969 195.082031 211.890625 195.28125 211.898438 C 195.484375 211.890625 195.675781 211.921875 195.851562 211.988281 C 196.207031 212.097656 196.472656 212.304688 196.65625 212.566406 C 200.640625 215.753906 204.429688 219.195312 207.910156 222.960938 C 221.992188 238.191406 231.824219 257.789062 235.335938 278.613281 C 237.574219 291.875 232.574219 309.777344 221.015625 317.292969 C 218.941406 318.644531 216.753906 319.675781 214.515625 320.398438 C 203.082031 324.09375 190.21875 319.839844 182.789062 309.96875 C 180.027344 312.191406 176.941406 313.953125 173.597656 315.03125 C 173.226562 315.152344 172.859375 315.261719 172.484375 315.363281 C 157.898438 319.351562 142.5 311.410156 138.144531 296.40625 C 134.949219 285.402344 136.464844 273.734375 141.28125 263.507812 C 147.390625 250.542969 156.386719 238.988281 167.128906 229.59375 C 172.039062 226.4375 176.722656 222.960938 181.136719 219.191406 C 185.367188 216.546875 189.753906 214.210938 194.257812 212.214844 C 194.398438 212.109375 194.554688 212.027344 194.722656 211.972656 " fill-opacity="1" fill-rule="nonzero"/></g></g></g></g><g clip-path="url(#5fafc42b0c)"><g clip-path="url(#2676248804)"><g clip-path="url(#a2bbed3c38)"><g clip-path="url(#cd7c4c7034)"><path fill="#27864f" d="M 181.136719 219.191406 C 176.722656 222.960938 172.039062 226.4375 167.128906 229.59375 C 171.527344 225.75 176.222656 222.261719 181.136719 219.191406 " fill-opacity="1" fill-rule="nonzero"/></g></g></g></g><g clip-path="url(#bb9ef68a91)"><g clip-path="url(#371e51e518)"><g clip-path="url(#a14b84aa7d)"><g clip-path="url(#fddf93edd0)"><path fill="#27864f" d="M 179.367188 82.652344 C 190.800781 78.957031 203.664062 83.210938 211.089844 93.078125 C 213.851562 90.855469 216.941406 89.097656 220.289062 88.015625 C 220.65625 87.898438 221.023438 87.785156 221.398438 87.683594 C 235.984375 83.695312 251.386719 91.640625 255.738281 106.644531 C 258.929688 117.644531 257.421875 129.316406 252.601562 139.542969 C 246.597656 152.277344 237.816406 163.652344 227.324219 172.953125 C 222.507812 176.113281 217.90625 179.585938 213.578125 183.332031 C 209.09375 186.191406 204.421875 188.707031 199.625 190.832031 C 199.484375 190.9375 199.328125 191.019531 199.15625 191.074219 C 198.984375 191.132812 198.800781 191.15625 198.601562 191.152344 C 198.398438 191.160156 198.207031 191.128906 198.03125 191.058594 C 197.675781 190.949219 197.40625 190.746094 197.222656 190.484375 C 194.03125 187.929688 190.960938 185.207031 188.078125 182.289062 C 183.863281 175.8125 179.039062 169.675781 173.6875 164.007812 C 166.179688 152.023438 160.917969 138.507812 158.546875 124.433594 C 156.3125 111.171875 161.308594 93.269531 172.863281 85.753906 C 174.941406 84.402344 177.125 83.375 179.367188 82.652344 " fill-opacity="1" fill-rule="nonzero"/></g></g></g></g><g clip-path="url(#746b31606d)"><g clip-path="url(#ea467a665f)"><g clip-path="url(#79854ffe85)"><g clip-path="url(#55ee94aed5)"><path fill="#27864f" d="M 173.6875 164.007812 C 179.039062 169.675781 183.863281 175.8125 188.078125 182.289062 C 187.363281 181.570312 186.664062 180.835938 185.972656 180.089844 C 181.40625 175.148438 177.289062 169.753906 173.6875 164.007812 " fill-opacity="1" fill-rule="nonzero"/></g></g></g></g><g clip-path="url(#a56fce0fec)"><g clip-path="url(#802cd61bc8)"><g clip-path="url(#77b5734c43)"><g clip-path="url(#7378015871)"><path fill="#27864f" d="M 227.324219 172.953125 C 223.003906 176.78125 218.398438 180.257812 213.578125 183.332031 C 217.90625 179.585938 222.507812 176.113281 227.324219 172.953125 " fill-opacity="1" fill-rule="nonzero"/></g></g></g></g><g clip-path="url(#58215b011a)"><g clip-path="url(#e1d7c7fa31)"><g clip-path="url(#56ae1d49a8)"><g clip-path="url(#1f547b7d41)"><path fill="#27864f" d="M 101.21875 142.992188 C 101.496094 142.902344 101.773438 142.820312 102.058594 142.738281 C 113.058594 139.542969 124.726562 141.054688 134.957031 145.871094 C 157.800781 156.640625 176.273438 176.347656 186.25 198.84375 C 186.460938 199.125 186.582031 199.46875 186.566406 199.863281 C 186.574219 200.066406 186.539062 200.257812 186.476562 200.433594 C 186.367188 200.789062 186.160156 201.054688 185.898438 201.242188 C 182.710938 205.226562 179.269531 209.015625 175.503906 212.496094 C 163.988281 223.136719 149.988281 231.347656 134.84375 236.242188 C 129.949219 237.824219 124.933594 239.0625 119.847656 239.921875 C 106.582031 242.15625 88.675781 237.160156 81.160156 225.605469 C 72.910156 212.917969 76.679688 196.261719 88.484375 187.382812 C 86.019531 184.316406 84.125 180.851562 83.09375 177.074219 C 79.183594 162.765625 86.753906 147.667969 101.21875 142.992188 " fill-opacity="1" fill-rule="nonzero"/></g></g></g></g><g clip-path="url(#7f8714fe1e)"><g clip-path="url(#22b66774ab)"><g clip-path="url(#e9dbc6cc5e)"><g clip-path="url(#29d51c98b9)"><path fill="#27864f" d="M 259.035156 166.804688 C 263.933594 165.21875 268.949219 163.984375 274.039062 163.128906 C 287.300781 160.890625 305.207031 165.890625 312.71875 177.441406 C 320.96875 190.128906 317.199219 206.785156 305.394531 215.664062 C 307.859375 218.734375 309.753906 222.199219 310.785156 225.972656 C 314.699219 240.285156 307.125 255.378906 292.660156 260.054688 C 292.382812 260.144531 292.105469 260.230469 291.824219 260.3125 C 280.820312 263.503906 269.152344 261.996094 258.925781 257.175781 C 236.078125 246.410156 217.609375 226.703125 207.632812 204.207031 C 207.425781 203.925781 207.300781 203.574219 207.3125 203.183594 C 207.304688 202.980469 207.339844 202.789062 207.40625 202.613281 C 207.515625 202.257812 207.722656 201.992188 207.980469 201.804688 C 211.171875 197.824219 214.613281 194.035156 218.378906 190.554688 C 229.890625 179.910156 243.894531 171.695312 259.035156 166.804688 " fill-opacity="1" fill-rule="nonzero"/></g></g></g></g></svg>